<svg viewBox="0 0 4835 3135">
<defs>
    <style>
      .cls-1 {
        fill: red;
      }
    </style>
  </defs>
  <path id="Color_Fill_1" data-name="Color Fill 1" class="cls-1" d="M848,1996c0.171-35.49-4.676-66.68-6-102-0.48-12.81-4.213-30.26,1-42,8.7-19.59,26.461-28,49-34,6.61-1.76,11.056-.19,18-2,36.166-9.42,80.828-14.86,118-23a15.607,15.607,0,0,0,1-5c-21.38-15.75-39.369-36.37-58-55-11.6-11.6-24.94-21.91-36-34-5.511-6.03-8.556-13.89-14-20-7.121-8-16.414-14.41-24-22-8.249-8.25-15.3-18.25-24-26-2.935-2.61-7.12-3.37-10-6-6.895-6.31-12.269-14.5-19-21-0.091-20.88,7.935-35.5,15-49,6.452-12.33,20.451-41.71,31-48,11.615-6.92,31.864-7.53,46-11h12c31.428-7.76,68.32-4.21,100-12,12.82-3.15,23.19,1.16,36-2,15.11-3.72,36.64-2.22,52-6h18c13.97-3.43,53.88-7.36,64-6,3.52,0.47,5.82-1.47,8-2h22c7.89-1.92,24.11-2.06,32-4h36c6.9-1.66,34.61-5.06,44-2,5.8,1.89,8.92,7.39,13,11,6.13,5.43,13.97,8.49,20,14,2.35,2.14,3.63,5.89,6,8,2.93,2.61,7.12,3.37,10,6,3.74,3.42,6.22,8.63,10,12,7.94,7.08,16.53,12.53,24,20,2.94,2.94,4.91,7.24,8,10,2.93,2.61,7.12,3.37,10,6,5.16,4.72,9.05,11.04,14,16,6.65,6.65,14.48,12.22,21,19a221.261,221.261,0,0,0,56-6h16c11.55-2.87,29.62-3.43,40-6h20c4.85-1.2,15.15-2.81,20-4h14c11.12-2.76,27.03-3.3,38-6h16c24.28-6.03,49.04-5.87,74-12h14c4.84-1.19,15.15-2.81,20-4h14c32.52-7.98,73.14-5.98,106-14,8.94-2.18,21.22-.35,28-2h114c13.41,0,29.64-.54,40,2h52c9.67,2.36,26.08-.91,38,2,22.57,5.51,53.26.43,76,6,11.32,2.77,26.92-.22,36,2,12.53,3.07,29.74-.51,40,2,10.72,2.62,25.51-.08,34,2h29c10.21,0,21.64.2,29,2,11.32,2.77,26.92-.22,36,2h32c14.38,3.51,37-1.66,52,2,30.1,7.34,71.52.59,102,8q8.505-.495,17-1c4.42,0.89,11.79,2.06,16,3h31c4.16,1.01,22.98,6.66,26,6,24.59-5.35,44.92-12,76-12,12.83,0,28.2-.4,38,2,10.72,2.62,25.51-.08,34,2,10.72,2.62,25.51-.08,34,2h31c9.64,0,20.16.33,27,2,13.83,3.38,33.61-1.03,46,2h71c15.96,0.02,31.92,2,50,2,13.79,0,24.35-2.6,35,0h44c5.97,0.22,10.73,3.67,18,2,1.27-.29,4.06-2.2,6-2,5.03,0.51,17.03,2.78,22,4,9.49,2.32,22.7.27,30,2,8.46,2.01,13.08-4.15,22-2,11.09,2.67,22.99,3.96,38,4,2.55-9.75,11.71-14.97,16-23,8.46-15.85,15.36-29.42,24-45,1.24-2.24,4.83-4.73,6-7,8.64-16.79,17.41-48.85,32-58,2.14-1.34,23.13-5.54,26-5,2.54,0.48,5.65,3.03,10,2,10.78-2.55,26.57-.09,40-1,7.4-.5,17.2-1.45,24,0,11.32,2.41,24.77-1.84,34,0,8.8,1.75,21.5,2.07,31,0q16.005,0.495,32,1c8.34-1.58,20.82-1.47,31-1,3,0.33,6,.67,9,1,12.96-2.54,28.77,2.83,42,0,6.92-1.48,19.07-1.03,26,0q13.5-.495,27-1c12.14,2.63,26.86,2.04,41,2,20.05-.05,40.18-2.75,59,0,13.86,2.03,29.61-.47,41,2,5.47,1.18,9.96-.85,14,0h21c12.75,0.06,28.48.66,40,3q9.495-.495,19-1c4.46,0.09,8.6,1.33,12,2,3.67-.33,7.33-0.67,11-1,11.73-.14,23.5.26,32,2h34c28.03,6.18,59.31,3.71,86,10,18.36,4.33,29.47-.77,43,9,15.9,11.48,36,71.38,27,98-8.05,23.8-20.6,46.56-30,69-6.08,14.5-8.31,28.25-16,41-5.42,8.99-12.39,18.41-18,27q-4.005,9.495-8,19c-3.51,5.79-8.1,11.54-10,19,9.44,5.9,17.47.33,29-3q9.495-.495,19-1c10.64-2.85,24.47-6.12,36-9,17.06-4.26,47.27-1,69-1,21.37,0,43.76-.92,62,3q7.5-.495,15-1c22.45,4.93,44.06,4.19,63,12,8.68,3.58,19.01,2.98,26,8,23.07,16.59,12.32,72.64,5,100-2.36,8.83.23,15.13-2,24-4,15.9-5.14,37.59-9,54v16c-9.28,38.91-9.36,88.76-19,128q-0.495,10.5-1,21c-4.42,18.64-4.61,40.8-9,59q-0.495,12-1,24c-4.25,17.05-6.13,40.93-11,58-1.9,6.65-5.75,22.44-4,30,0.53,2.31,2.88,5.1,2,9-1.25,5.51-5.37,10.09-7,15-2.66,8.02-.75,15.46-3,24-0.8,3.02-3.22,6.98-4,10v10c-2.09,7.97-9.01,18.01-18,19-7.98,5.25-23.57,3.86-34,7-2.37.71-5.34,3.29-8,4h-10c-8,2.37-19.24,6.33-28,9-5.53,1.69-10.78.63-16,3-4.06,1.84-10.87,6.37-15,8q-7.995.495-16,1c-5.74,2.1-12.49,7.19-18,9h-10c-9.73,2.66-20.17,3.06-31,6-21.23,5.77-45.55,12.5-65,21-7.82,3.42-17.12,2.24-25,6-20.97,10.02-43.86,14.95-67,23-10,3.48-23.21,10.79-33,15-7.54,3.24-15.63,2.84-23,6-2.26.97-4.81,4.24-7,5-5.89,2.05-11.06-.09-16,2-2.83,1.2-5.3,5.05-8,6-5.79,2.04-12.92-.88-18,1-9.49,3.51-18.35,10.44-27,14q-6,1.005-12,2c-1.79.87-4.81,4.54-7,5-2.67-.67-5.33-1.33-8-2-15.44,1.68-29.61,1.57-44-2h-16c-7.32-1.82-22.66-2.29-30-4-6.28-1.46-20.11,3.55-28,2-12.17-2.39-28.19.97-41-2-3.07-.71-7.5-2.89-12-2-6.49,1.29-14.9,4.88-23,3-24.26-5.64-51.23-12.15-74-18h-14c-10.03-2.4-23.06-4.72-32-7-9.77-2.49-21.17-1.14-29-2h-11c-8.06-2.87-17.98-2.88-27-5q-7.995.495-16,1c-19.59-4.36-41-5.03-61-10h-24c-6.21-1.54-17.67.09-26-2-3.34-.84-8.66-3.16-12-4h-14a88.127,88.127,0,0,1-20-2h-20c-6.81-1.69-21.19-2.31-28-4h-24c-4.02-1-11.98-3-16-4h-34c-27.55-6.84-63.46-3.39-90-10h-15a70.511,70.511,0,0,1-17-2h-26c-43.96-10.9-102.03-3.09-146-14h-21c-16.06,0-36.12,1.2-49-2h-20c-24.81-6.17-53.43-3.9-78-10h-25c-7.24-1.2-21.93-2.24-29-4h-22a76.715,76.715,0,0,0-18-2h-14c-19.49-4.85-44.33-3.11-64-8-12.91-3.21-23.82,1.04-36-2-52.03-12.99-117.97-7.08-170-20h-30c-6.81-1.69-21.19-2.31-28-4h-16c-3.02-.77-6.98-3.23-10-4h-20c-8.38,0-13.65-1.56-19-3h-34c-8.94-2.25-13.84-8.56-21-10-7.6,5-19.93,1.97-30,5-7.32,2.21-16.6,5.09-24,7h-16c-6.48,1.69-14.36,6.13-20,8h-10c-5.91,1.52-12.64,1.99-20,4-9.07,2.48-20.67,7.61-30,11-8.85,3.21-16.49,2.41-26,5-14.96,4.08-31.13,8.42-46,13-34.9,10.74-71.95,15.23-106,26l-35,3c-5.33,1.63-13.44,6.2-19,8h-8c-7.09,1.84-16.91,4.17-24,6-10.77,2.77-20.44-.95-32,2-11.09,2.82-23.08,7.17-34,10q-7.005.495-14,1c-2.26.99-5.33,4.19-8,5-9.7,2.94-19.19-.81-30,2-80.47,20.95-159.14,40.2-241,62-18.58,4.95-38.63,5.25-56,10h-10c-3.46.88-8.22,4.37-11,5-2.15.49-4.64-1.76-8-1-4.44,1.01-9.22,3.92-13,5-1-.33-2-0.67-3-1-5.18,1.9-11.14,5.38-18,7-11.65,2.75-26.33-2.85-35-5-15.16-3.76-31.99-2.15-46-6h-10c-5.33-1.34-15.44-2.67-21-4q-11.505-.495-23-1c-41.55-11.32-93.14-10.42-138-19-2,.33-4,0.67-6,1-7.39.37-28.72,0.88-37-1-8.18-1.86-16.4-1.88-24-3H995c-40.225-10.8-86.145-6.5-126-18-19.419-5.6-42.754-1.4-63-6q-6.5.495-13,1c-19.369-3.45-38.5-4.55-56-9-5.291-1.35-12.233,1.38-16,1-16.663-1.68-33.086-3.36-48-7H650c-12.9-3.25-27.358-4.77-40-8H564c-2.658-.7-5.629-3.3-8-4-4.74-1.4-10.847-1.2-14-2-9.768-2.49-23.392-.09-31-2-8.342-2.09-17.563,6.39-22-1-0.347-.78-2.677-1.16-7-1-3.293-3.32-6.358-3.71-7-10-5.684-8.97-2.467-35.8-3-50-0.575-15.33-2-35.65-2-54v-18c1.362-5.61.02-16.33,2-24,1.354-5.24,4.516-7.22,5-14-16.041-7.81-36.6-10.56-48-23-14.268-15.57-15.1-40.64-21-65v-28c-2.358-9.7-4.942-43.28-1-54,3.4-9.24,11.221-18.8,18-25,25.208-23.05,67.639-31.48,103-44,7.489-2.65,14.731-1.4,22-4,17.09-6.11,37.59-10.35,56-15,6.973-1.76,11.381-.23,18-2C688.814,2004.63,767.752,1996.52,848,1996Z"/>
</svg>
